<mxfile host="app.diagrams.net" modified="2023-11-27T08:35:38.274Z" agent="Mozilla/5.0 (Windows NT 10.0; Win64; x64) AppleWebKit/537.36 (KHTML, like Gecko) Chrome/119.0.0.0 Safari/537.36" etag="s_qjzW2a14DErejhHq6i" version="22.1.4" type="device">
  <diagram name="Страница — 1" id="HG4hAhhL7Bi-YpSY1SVj">
    <mxGraphModel dx="712" dy="780" grid="1" gridSize="10" guides="1" tooltips="1" connect="1" arrows="1" fold="1" page="1" pageScale="1" pageWidth="827" pageHeight="1169" math="0" shadow="0">
      <root>
        <mxCell id="0" />
        <mxCell id="1" parent="0" />
        <mxCell id="_GBd8zB3Q7g4gmSygDEA-1" value="Аптекарь" style="shape=umlActor;verticalLabelPosition=bottom;verticalAlign=top;html=1;outlineConnect=0;" vertex="1" parent="1">
          <mxGeometry x="240" y="140" width="30" height="60" as="geometry" />
        </mxCell>
        <mxCell id="_GBd8zB3Q7g4gmSygDEA-2" value="Модуль оформления продажи" style="rounded=0;whiteSpace=wrap;html=1;" vertex="1" parent="1">
          <mxGeometry x="330" y="150" width="120" height="60" as="geometry" />
        </mxCell>
        <mxCell id="_GBd8zB3Q7g4gmSygDEA-3" value="База данных" style="rounded=0;whiteSpace=wrap;html=1;" vertex="1" parent="1">
          <mxGeometry x="490" y="150" width="120" height="60" as="geometry" />
        </mxCell>
        <mxCell id="_GBd8zB3Q7g4gmSygDEA-4" value="" style="ellipse;whiteSpace=wrap;html=1;" vertex="1" parent="1">
          <mxGeometry x="70" y="260" width="40" height="40" as="geometry" />
        </mxCell>
        <mxCell id="_GBd8zB3Q7g4gmSygDEA-5" value="" style="rounded=0;whiteSpace=wrap;html=1;" vertex="1" parent="1">
          <mxGeometry x="247.5" y="280" width="15" height="790" as="geometry" />
        </mxCell>
        <mxCell id="_GBd8zB3Q7g4gmSygDEA-6" value="" style="endArrow=classic;html=1;rounded=0;exitX=1;exitY=0.5;exitDx=0;exitDy=0;entryX=0.5;entryY=0;entryDx=0;entryDy=0;" edge="1" parent="1" source="_GBd8zB3Q7g4gmSygDEA-4" target="_GBd8zB3Q7g4gmSygDEA-5">
          <mxGeometry width="50" height="50" relative="1" as="geometry">
            <mxPoint x="360" y="410" as="sourcePoint" />
            <mxPoint x="160" y="280" as="targetPoint" />
          </mxGeometry>
        </mxCell>
        <mxCell id="_GBd8zB3Q7g4gmSygDEA-7" value="" style="endArrow=none;dashed=1;html=1;dashPattern=1 3;strokeWidth=2;rounded=0;entryX=0.5;entryY=0.5;entryDx=0;entryDy=0;entryPerimeter=0;exitX=0.5;exitY=0;exitDx=0;exitDy=0;" edge="1" parent="1" source="_GBd8zB3Q7g4gmSygDEA-5" target="_GBd8zB3Q7g4gmSygDEA-1">
          <mxGeometry width="50" height="50" relative="1" as="geometry">
            <mxPoint x="360" y="520" as="sourcePoint" />
            <mxPoint x="410" y="470" as="targetPoint" />
          </mxGeometry>
        </mxCell>
        <mxCell id="_GBd8zB3Q7g4gmSygDEA-8" value="" style="rounded=0;whiteSpace=wrap;html=1;" vertex="1" parent="1">
          <mxGeometry x="380" y="280" width="20" height="100" as="geometry" />
        </mxCell>
        <mxCell id="_GBd8zB3Q7g4gmSygDEA-9" value="" style="rounded=0;whiteSpace=wrap;html=1;" vertex="1" parent="1">
          <mxGeometry x="380" y="430" width="20" height="100" as="geometry" />
        </mxCell>
        <mxCell id="_GBd8zB3Q7g4gmSygDEA-10" value="" style="rounded=0;whiteSpace=wrap;html=1;" vertex="1" parent="1">
          <mxGeometry x="400" y="300" width="20" height="100" as="geometry" />
        </mxCell>
        <mxCell id="_GBd8zB3Q7g4gmSygDEA-11" value="" style="rounded=0;whiteSpace=wrap;html=1;" vertex="1" parent="1">
          <mxGeometry x="380" y="870" width="20" height="100" as="geometry" />
        </mxCell>
        <mxCell id="_GBd8zB3Q7g4gmSygDEA-12" value="" style="rounded=0;whiteSpace=wrap;html=1;" vertex="1" parent="1">
          <mxGeometry x="380" y="740" width="20" height="100" as="geometry" />
        </mxCell>
        <mxCell id="_GBd8zB3Q7g4gmSygDEA-13" value="" style="rounded=0;whiteSpace=wrap;html=1;" vertex="1" parent="1">
          <mxGeometry x="380" y="585" width="20" height="100" as="geometry" />
        </mxCell>
      </root>
    </mxGraphModel>
  </diagram>
</mxfile>
